<?xml version="1.0" encoding="UTF-8"?>
<!DOCTYPE svg PUBLIC "-//W3C//DTD SVG 1.1//EN" "http://www.w3.org/Graphics/SVG/1.1/DTD/svg11.dtd">
<!-- Creator: CorelDRAW 2018 (64-Bit) -->
<svg xmlns="http://www.w3.org/2000/svg" xml:space="preserve" width="1500mm" height="1500mm" version="1.1" style="shape-rendering:geometricPrecision; text-rendering:geometricPrecision; image-rendering:optimizeQuality; fill-rule:evenodd; clip-rule:evenodd"
viewBox="0 0 150000 150000"
 xmlns:xlink="http://www.w3.org/1999/xlink">
 <defs>
  <style type="text/css">
   <![CDATA[
    .fil0 {fill:black;fill-rule:nonzero}
   ]]>
  </style>
 </defs>
 <g id="Слой_x0020_1">
  <metadata id="CorelCorpID_0Corel-Layer"/>
  <path class="fil0" d="M94650.98 75635.74c-2832.03,0 -5395.87,1147.81 -7251.56,3003.5 -1855.7,1855.69 -3003.5,4419.55 -3003.5,7251.59 0,2832.03 1147.8,5395.87 3003.5,7251.56 1855.69,1855.7 4419.53,3003.5 7251.56,3003.5 2832.03,0 5395.9,-1147.8 7251.59,-3003.5 1855.69,-1855.69 3003.5,-4419.53 3003.5,-7251.56 0,-2832.04 -1147.81,-5395.9 -3003.5,-7251.59 -1855.69,-1855.69 -4419.53,-3003.5 -7251.59,-3003.5zm-19869.01 -30388.61c14.52,-1805.09 425.59,-3549.55 847.62,-5340.07 810.87,-3440.21 1665.49,-7066.08 -589.83,-11226.34l0 -7.81c-1972.23,-3704.25 -2657.89,-7251.92 -2494.17,-10623.63 163.03,-3357.41 1163.92,-6514.79 2571.32,-9465.47 237.31,-498.34 833.69,-709.96 1332.03,-472.65 498.34,237.31 709.96,833.69 472.65,1332.03 -1307.22,2740.64 -2235.7,5649.4 -2383.82,8699.85 -147.34,3034.31 473.22,6234.3 2256.61,9586.3l3.2 -1.74c2617.01,4827.45 1673.01,8832.55 777.33,12632.58 -394.31,1672.87 -778.39,3302.48 -797.86,4886.95l23409.21 0c429.48,-4666.88 1096.22,-9396.77 4386.91,-11511.11 1736.52,-1115.81 5303.84,-1604.74 8798.57,-1586.72 3759.53,19.4 7621.5,638.3 9160.45,1703.91 1666.44,1153.92 2684.55,3263.19 3322.52,5514.33 574.62,2027.57 852.07,4185.42 1020.35,5738.06 84.64,780.94 595.71,1727.25 1335.38,2732.98 452.91,615.81 985.49,1240.23 1561.09,1858.35 237.22,219.26 470.35,442.9 698.74,671.29 285.61,285.61 564.05,578.36 835.34,877.72l19.58 18.78 -1.4 1.46c3582.97,3962.51 5888.45,9101.74 6267.45,14768.39 808.61,4575.56 1842.68,10772.69 2830.78,17014.02 851.48,5378.44 1645.5,10664.63 2191.01,14750.12 439.97,3295.12 752.53,6073.18 151.84,8742.53 -628.38,2792.51 -2193.26,5268.55 -5502.57,7705.23 -2579.82,1899.51 -5725.71,3057.66 -8798.37,3452.26 -3213.13,412.64 -6383.58,-10.89 -8802.76,-1293.61 -1261.87,-669.09 -2591.88,-1974.99 -3932.02,-3668.99 -1241.48,-1569.24 -2522.56,-3503.82 -3775.52,-5570.59 -2221.75,-3664.73 -4349.46,-7731.16 -6001.99,-10889.46 -268.15,-512.51 -523.37,-1000.28 -765.41,-1460.06 -245.8,289.89 -503.32,569.54 -771.9,838.13 -2498.76,2498.75 -5950.69,4044.31 -9763.35,4044.31 -3812.66,0 -7264.56,-1545.56 -9763.32,-4044.31 -1154.98,-1154.98 -2106.17,-2513.71 -2795.28,-4017.5l-14184.76 0c-689.11,1503.79 -1640.3,2862.52 -2795.28,4017.5 -2498.76,2498.75 -5950.66,4044.31 -9763.32,4044.31 -3812.66,0 -7264.59,-1545.56 -9763.35,-4044.31 -268.59,-268.59 -526.08,-548.25 -771.9,-838.13 -242.04,459.78 -497.26,947.55 -765.41,1460.06 -1652.53,3158.3 -3780.24,7224.73 -6001.99,10889.46 -1252.96,2066.77 -2534.04,4001.35 -3775.52,5570.59 -1340.14,1694 -2670.15,2999.9 -3932.02,3668.99 -2419.18,1282.72 -5589.63,1706.25 -8802.76,1293.61 -3072.66,-394.6 -6218.55,-1552.75 -8798.37,-3452.26 -3309.31,-2436.68 -4874.19,-4912.72 -5502.57,-7705.23 -600.69,-2669.35 -288.13,-5447.41 151.84,-8742.53 545.51,-4085.49 1339.53,-9371.68 2191.01,-14750.12 988.1,-6241.33 2022.17,-12438.46 2830.78,-17014.02 378.97,-5666.67 2684.52,-10805.88 6267.45,-14768.39l-1.4 -1.46 19.58 -18.78c271.29,-299.37 549.73,-592.11 835.34,-877.72 228.39,-228.39 461.52,-452.03 698.74,-671.29 575.61,-618.11 1108.18,-1242.54 1561.09,-1858.35 739.67,-1005.73 1250.74,-1952.04 1335.38,-2732.98 168.28,-1552.64 445.73,-3710.49 1020.35,-5738.06 637.97,-2251.14 1656.08,-4360.41 3322.52,-5514.33 1538.95,-1065.61 5400.92,-1684.51 9160.45,-1703.91 3494.73,-18.02 7062.05,470.91 8798.57,1586.72 3290.69,2114.34 3957.43,6844.23 4386.91,11511.11l24968.23 0zm4059.96 19041.41l5639.03 0c522.25,0 996.21,212.82 1339.08,555.62 342.8,342.87 555.62,816.83 555.62,1339.08l0 2255.22c0,522.27 -212.82,996.25 -555.62,1339.05 -342.82,342.82 -816.8,555.65 -1339.08,555.65l-5639.03 0c-522.3,0 -996.28,-212.8 -1339.05,-555.65 -342.85,-342.77 -555.65,-816.76 -555.65,-1339.05l0 -2255.22c0,-522.27 212.82,-996.26 555.65,-1339.08 342.79,-342.8 816.78,-555.62 1339.05,-555.62zm5165.36 2368.38l-4691.68 0 0 1307.86 4691.68 0 0 -1307.86zm-18951.34 -2368.38l5639.03 0c522.27,0 996.26,212.82 1339.06,555.62 342.82,342.82 555.64,816.81 555.64,1339.08l0 2255.22c0,522.29 -212.8,996.28 -555.64,1339.05 -342.78,342.85 -816.76,555.65 -1339.06,555.65l-5639.03 0c-522.28,0 -996.26,-212.83 -1339.08,-555.65 -342.8,-342.8 -555.62,-816.78 -555.62,-1339.05l0 -2255.22c0,-522.25 212.82,-996.21 555.62,-1339.08 342.87,-342.8 816.83,-555.62 1339.08,-555.62zm5165.35 2368.38l-4691.68 0 0 1307.86 4691.68 0 0 -1307.86zm-21899.82 1936.5l0 -3488.19 -5337.7 -67.31 -801.18 1664.73 822.82 1823.74 5316.06 67.03zm2368.37 -4302.8l0 5147.29 -4.61 4.62 -0.03 14.68c-4.76,373.45 -140.82,721.01 -357.72,981.53 -272.76,327.76 -662.69,529.95 -1105.96,529.95l-9.26 -4.62c-2286.29,-18.14 -4575.11,-57.62 -6861.56,-86.45 -907.07,-11.34 -1110.7,-488.1 -1329.58,-1000.3 -0.86,-2.04 0.87,2.2 -21.46,-47.37l-1424.58 -3157.52 1438.46 -2988.96 1.8 0.87c36,-75 -11.54,18.76 17.4,-46.53 225.76,-509.11 433.94,-978.48 1345.72,-967.01l6853.96 86.42c448.8,5.64 838.57,212.11 1104.8,540.27 217.53,268.03 352.62,620.71 352.62,993.13zm-28624.49 5147.29l0 -5147.29c0,-372.42 135.09,-725.1 352.62,-993.13 266.21,-328.11 655.93,-534.63 1104.8,-540.27l6853.97 -86.42c911.63,-11.47 1119.95,457.88 1345.71,967.01 28.94,65.27 -18.62,-28.52 17.4,46.53l1.8 -0.87 1438.48 2988.96 -1424.6 3157.52c-22.36,49.57 -20.6,45.33 -21.46,47.37 -218.88,512.2 -422.63,988.96 -1329.58,1000.3 -2286.47,28.83 -4575.27,68.31 -6861.56,86.45l-9.26 4.62c-443.34,0 -833.22,-202.24 -1105.96,-529.95 -216.92,-260.55 -352.96,-608.08 -357.72,-981.53l-0.03 -14.68 -4.61 -4.62zm2368.37 -4332.68l0 3488.19 5316.06 -67.03 822.82 -1823.74 -801.17 -1664.73 -5337.71 67.31zm9911.35 14045.06l3488.19 0 67.31 -5337.71 -1664.73 -801.17 -1823.75 822.82 -67.02 5316.06zm4302.79 2368.37l-5147.28 0 -4.62 -4.61 -14.69 -0.03c-373.49,-4.76 -721,-140.82 -981.52,-357.72 -327.71,-272.74 -529.95,-662.62 -529.95,-1105.96l4.62 -9.26c18.14,-2286.29 57.62,-4575.11 86.44,-6861.56 11.35,-907.07 488.08,-1110.7 1000.31,-1329.58 2.04,-0.86 -2.2,0.9 47.37,-21.46l3157.54 -1424.58 2988.94 1438.46 -0.88 1.8c74.96,35.97 -18.76,-11.54 46.54,17.4 509.08,225.73 978.47,433.96 967.01,1345.72l-86.42 6853.96c-5.64,448.87 -212.19,838.61 -540.28,1104.8 -268.07,217.56 -620.73,352.62 -993.13,352.62zm-5147.28 -29209.41l5147.28 0c372.4,0 725.06,135.07 993.13,352.63 328.09,266.18 534.64,655.92 540.28,1104.8l86.42 6853.96c11.46,911.63 -457.9,1119.95 -967.01,1345.71 -65.3,28.94 28.44,-18.57 -46.54,17.41l0.88 1.8 -2988.94 1438.48 -3157.54 -1424.61c-49.6,-22.35 -45.33,-20.6 -47.37,-21.45 -512.23,-218.89 -988.96,-422.64 -1000.31,-1329.59 -28.82,-2286.47 -68.3,-4575.27 -86.44,-6861.56l-4.62 -9.26c0,-443.34 202.24,-833.22 529.95,-1105.96 260.52,-216.9 608.03,-352.96 981.52,-357.72l14.69 -0.02 4.62 -4.62zm4332.68 2368.37l-3488.19 0 67.02 5316.06 1823.75 822.82 1664.73 -801.17 -67.31 -5337.71zm69654.97 12005.59c0,-712.13 -288.58,-1356.85 -755.15,-1823.39 -466.55,-466.57 -1111.27,-755.16 -1823.39,-755.16 -712.13,0 -1356.85,288.61 -1823.39,755.16 -466.55,466.54 -755.16,1111.26 -755.16,1823.39 0,712.12 288.61,1356.81 755.16,1823.38 466.57,466.55 1111.26,755.16 1823.39,755.16 712.12,0 1356.84,-288.61 1823.39,-755.16 466.54,-466.54 755.15,-1111.26 755.15,-1823.38zm919.38 -3497.93c895.27,895.22 1449,2131.96 1449,3497.93 0,1365.93 -553.73,2602.65 -1449,3497.92 -895.22,895.22 -2131.99,1449 -3497.92,1449 -1365.94,0 -2602.66,-553.78 -3497.93,-1449 -895.22,-895.27 -1448.99,-2131.99 -1448.99,-3497.92 0,-1365.94 553.77,-2602.71 1448.99,-3497.93 895.27,-895.27 2131.99,-1449 3497.93,-1449 1365.96,0 2602.7,553.73 3497.92,1449zm16877 3497.93c0,-712.13 -288.59,-1356.85 -755.16,-1823.39 -466.54,-466.57 -1111.26,-755.16 -1823.39,-755.16 -712.12,0 -1356.84,288.61 -1823.38,755.16 -466.55,466.54 -755.16,1111.26 -755.16,1823.39 0,712.12 288.61,1356.81 755.16,1823.38 466.57,466.55 1111.26,755.16 1823.38,755.16 712.13,0 1356.85,-288.61 1823.39,-755.16 466.55,-466.54 755.16,-1111.26 755.16,-1823.38zm919.38 -3497.93c895.27,895.22 1449,2131.96 1449,3497.93 0,1365.93 -553.73,2602.65 -1449,3497.92 -895.22,895.22 -2131.99,1449 -3497.93,1449 -1365.93,0 -2602.65,-553.78 -3497.92,-1449 -895.22,-895.27 -1449,-2131.99 -1449,-3497.92 0,-1365.94 553.78,-2602.71 1449,-3497.93 895.27,-895.27 2131.99,-1449 3497.92,-1449 1365.97,0 2602.71,553.73 3497.93,1449zm-12396.1 9817.58c-712.13,0 -1356.84,288.61 -1823.39,755.16 -466.55,466.54 -755.16,1111.26 -755.16,1823.39 0,712.12 288.61,1356.84 755.16,1823.39 466.55,466.54 1111.26,755.15 1823.39,755.15 712.12,0 1356.84,-288.58 1823.39,-755.15 466.57,-466.55 755.15,-1111.27 755.15,-1823.39 0,-712.13 -288.58,-1356.85 -755.15,-1823.39 -466.55,-466.57 -1111.27,-755.16 -1823.39,-755.16zm-3497.93 -919.38c895.27,-895.27 2131.99,-1448.99 3497.93,-1448.99 1365.96,0 2602.7,553.72 3497.92,1448.99 895.27,895.22 1449,2131.97 1449,3497.93 0,1365.96 -553.73,2602.7 -1449,3497.92 -895.22,895.27 -2131.96,1449 -3497.92,1449 -1365.94,0 -2602.66,-553.73 -3497.93,-1449 -895.22,-895.22 -1448.99,-2131.99 -1448.99,-3497.92 0,-1365.94 553.77,-2602.71 1448.99,-3497.93zm3497.93 -16877c-712.13,0 -1356.84,288.61 -1823.39,755.16 -466.55,466.55 -755.16,1111.26 -755.16,1823.39 0,712.12 288.61,1356.82 755.16,1823.39 466.57,466.54 1111.26,755.15 1823.39,755.15 712.12,0 1356.84,-288.61 1823.39,-755.15 466.54,-466.55 755.15,-1111.27 755.15,-1823.39 0,-712.13 -288.58,-1356.84 -755.15,-1823.39 -466.55,-466.57 -1111.27,-755.16 -1823.39,-755.16zm-3497.93 -919.38c895.27,-895.27 2131.99,-1448.99 3497.93,-1448.99 1365.96,0 2602.7,553.72 3497.92,1448.99 895.27,895.23 1449,2131.97 1449,3497.93 0,1365.94 -553.73,2602.65 -1449,3497.92 -895.22,895.23 -2131.99,1449 -3497.92,1449 -1365.94,0 -2602.66,-553.77 -3497.93,-1449 -895.22,-895.27 -1448.99,-2131.98 -1448.99,-3497.92 0,-1365.94 553.77,-2602.7 1448.99,-3497.93zm-15658.96 26897.48c-1299.7,0 -2476.31,526.75 -3327.88,1378.35 -851.6,851.59 -1378.35,2028.18 -1378.35,3327.87 0,1299.7 526.75,2476.31 1378.35,3327.9 851.57,851.58 2028.18,1378.33 3327.88,1378.33 1299.69,0 2476.27,-526.75 3327.87,-1378.35 851.6,-851.57 1378.35,-2028.18 1378.35,-3327.88 0,-1299.67 -526.75,-2476.28 -1378.35,-3327.87 -851.6,-851.6 -2028.18,-1378.35 -3327.87,-1378.35zm-5002.42 -296.19c1280.28,-1280.29 3048.93,-2072.19 5002.42,-2072.19 1953.48,0 3722.14,791.92 5002.41,2072.19 1280.27,1280.27 2072.18,3048.95 2072.18,5002.41 0,1953.49 -791.89,3722.14 -2072.18,5002.42 -1280.27,1280.27 -3048.93,2072.18 -5002.41,2072.18 -1953.49,0 -3722.17,-791.91 -5002.42,-2072.16 -1280.27,-1280.27 -2072.18,-3048.95 -2072.18,-5002.44 0,-1953.48 791.91,-3722.14 2072.18,-5002.41zm18636.86 7194.37c608.11,143.38 1231.68,261.25 1869.58,352.27 961.94,137.27 1959.86,208.32 2989.72,208.32 5785.26,0 11022.73,-2344.83 14813.77,-6135.84 3791.01,-3791.04 6135.84,-9028.51 6135.84,-14813.77 0,-5417.17 -2056.02,-10353.98 -5430.11,-14072.76 -443.21,-429.16 -881.17,-868.81 -1303.78,-1315.53 -3734.77,-3451.83 -8728.76,-5561.32 -14215.72,-5561.32 -5785.25,0 -11022.73,2344.84 -14813.74,6135.85 -3791.03,3791.04 -6135.87,9028.51 -6135.87,14813.76 0,1085.38 81.43,2147.29 238.43,3180.12 69.26,455.68 152.77,905.36 250.01,1348.61 642.62,-91.69 1299.44,-139.3 1967.4,-139.3 3812.68,0 7264.59,1545.56 9763.35,4044.31 2498.75,2498.76 4044.31,5950.69 4044.31,9763.35 0,745.95 -59.26,1478.06 -173.19,2191.93zm-19024.87 -14907.57c-134.23,-585.17 -247.16,-1176.79 -337.94,-1773.99 -184.4,-1213.2 -280.06,-2451.44 -280.06,-3707.46 0,-6765.88 2742.58,-12891.42 7176.67,-17325.52 549.52,-549.52 1125.07,-1073.01 1724.57,-1568.53l-45087.64 0c599.48,495.56 1175.05,1019.01 1724.57,1568.53 4434.09,4434.1 7176.67,10559.64 7176.67,17325.52 0,1256.02 -95.66,2494.26 -280.06,3707.46 -90.78,597.2 -203.71,1188.82 -337.94,1773.99 1645.48,698.48 3127.59,1706.97 4372.92,2952.29 2498.75,2498.76 4044.31,5950.69 4044.31,9763.35 0,746.42 -59.5,1478.93 -173.53,2193.26l12033.76 0c-114.03,-714.33 -173.53,-1446.84 -173.53,-2193.26 0,-3812.66 1545.56,-7264.59 4044.31,-9763.35 1245.32,-1245.32 2727.42,-2253.85 4372.92,-2952.29zm14511.84 -28126.61c2887.24,-1196.36 6052.61,-1857.01 9372.33,-1857.01 3639.06,0 7092.74,793.71 10197.7,2217.03 -153.91,-1407.86 -404.43,-3329.46 -901.51,-5083.52 -442.2,-1560.38 -1056.66,-2959.24 -1920.92,-3557.68 -968.38,-670.54 -4017.86,-1063.21 -7162.16,-1079.41 -2906.64,-14.97 -5734.34,302.13 -6869.62,1031.61 -1820.6,1169.78 -2364.09,4683.86 -2715.82,8328.98zm32073.54 31881.85c-1242.93,3051.56 -3083.17,5796.31 -5375.69,8088.84 -4434.09,4434.07 -10559.64,7176.65 -17325.52,7176.65 -1169.76,0 -2335.1,-85.24 -3489.3,-249.96 -743.59,-106.11 -1481.75,-247.66 -2212.65,-422.93 455.44,841.92 1016.62,1914.4 1645.09,3115.56 1633.9,3122.68 3737.58,7143.23 5890.96,10695.16 1182.19,1950.05 2381,3762.8 3525.75,5209.79 1046.04,1322.24 2008.86,2301.63 2807.95,2725.33 1776.68,942.05 4195.48,1241.51 6707.31,918.93 2500.24,-321.1 5056.1,-1260.54 7147,-2800.06 2526.42,-1860.21 3700.02,-3656.77 4142.59,-5623.61 470.32,-2089.95 186.47,-4558.2 -207.35,-7507.47 -539.82,-4042.93 -1329.13,-9296.56 -2177.13,-14652.97 -350.15,-2211.74 -714.76,-4464.73 -1079.01,-6673.26zm-80496.97 1885.77c1953.49,0 3722.14,791.9 5002.42,2072.19 1280.27,1280.27 2072.18,3048.93 2072.18,5002.41 0,1953.49 -791.91,3722.17 -2072.18,5002.44 -1280.25,1280.25 -3048.93,2072.16 -5002.42,2072.16 -1953.48,0 -3722.14,-791.91 -5002.41,-2072.18 -1280.29,-1280.28 -2072.18,-3048.93 -2072.18,-5002.42 0,-1953.46 791.91,-3722.14 2072.18,-5002.41 1280.27,-1280.27 3048.93,-2072.19 5002.41,-2072.19zm3327.88 3746.73c-851.57,-851.6 -2028.18,-1378.35 -3327.88,-1378.35 -1299.69,0 -2476.27,526.75 -3327.87,1378.35 -851.6,851.59 -1378.35,2028.2 -1378.35,3327.87 0,1299.7 526.75,2476.31 1378.35,3327.88 851.6,851.6 2028.18,1378.35 3327.87,1378.35 1299.7,0 2476.31,-526.75 3327.88,-1378.33 851.6,-851.59 1378.35,-2028.2 1378.35,-3327.9 0,-1299.69 -526.75,-2476.28 -1378.35,-3327.87zm-44522.83 -5632.5c-364.25,2208.53 -728.86,4461.52 -1079.01,6673.26 -848,5356.41 -1637.31,10610.04 -2177.13,14652.97 -393.82,2949.27 -677.67,5417.52 -207.35,7507.47 442.57,1966.84 1616.17,3763.4 4142.59,5623.61 2090.9,1539.52 4646.76,2478.96 7147,2800.06 2511.83,322.58 4930.63,23.12 6707.31,-918.93 799.09,-423.7 1761.91,-1403.09 2807.95,-2725.33 1144.75,-1446.99 2343.56,-3259.74 3525.75,-5209.79 2153.38,-3551.93 4257.06,-7572.48 5890.96,-10695.16 628.47,-1201.16 1189.65,-2273.64 1645.09,-3115.56 -730.9,175.27 -1469.06,316.82 -2212.65,422.93 -1154.2,164.72 -2319.54,249.96 -3489.3,249.96 -6765.88,0 -12891.43,-2742.58 -17325.52,-7176.65 -2292.52,-2292.53 -4132.76,-5037.28 -5375.69,-8088.84zm27560.5 11152.33c-113.93,-713.87 -173.18,-1445.98 -173.18,-2191.93 0,-3812.66 1545.56,-7264.59 4044.31,-9763.35 2498.76,-2498.75 5950.67,-4044.31 9763.35,-4044.31 667.96,0 1324.78,47.6 1967.4,139.3 97.24,-443.25 180.75,-892.93 250.01,-1348.61 157,-1032.83 238.43,-2094.74 238.43,-3180.12 0,-5785.25 -2344.84,-11022.72 -6135.87,-14813.76 -3791.01,-3791.01 -9028.49,-6135.85 -14813.74,-6135.85 -5486.96,0 -10480.95,2109.49 -14215.72,5561.32 -422.61,446.72 -860.57,886.37 -1303.78,1315.53 -3374.09,3718.78 -5430.11,8655.59 -5430.11,14072.76 0,5785.26 2344.83,11022.73 6135.84,14813.77 3791.04,3791.01 9028.51,6135.84 14813.77,6135.84 1029.86,0 2027.78,-71.05 2989.72,-208.32 637.9,-91.02 1261.46,-208.89 1869.57,-352.27zm-15056.99 -42674.16c3104.96,-1423.32 6558.64,-2217.03 10197.7,-2217.03 3319.72,0 6485.1,660.63 9372.33,1857.01 -351.73,-3645.12 -895.22,-7159.2 -2715.82,-8328.98 -1135.28,-729.48 -3962.98,-1046.58 -6869.62,-1031.61 -3144.3,16.2 -6193.78,408.87 -7162.16,1079.41 -864.26,598.44 -1478.72,1997.3 -1920.92,3557.68 -497.08,1754.06 -747.6,3675.66 -901.51,5083.52zm35943.03 33230.64c-1855.69,-1855.69 -4419.53,-3003.5 -7251.56,-3003.5 -2832.06,0 -5395.9,1147.81 -7251.59,3003.5 -1855.69,1855.69 -3003.5,4419.55 -3003.5,7251.59 0,2832.03 1147.81,5395.87 3003.5,7251.56 1855.69,1855.7 4419.56,3003.5 7251.59,3003.5 2832.03,0 5395.87,-1147.8 7251.56,-3003.5 1855.7,-1855.69 3003.5,-4419.53 3003.5,-7251.56 0,-2832.04 -1147.8,-5395.9 -3003.5,-7251.59z"/>
 </g>
</svg>
